<svg xmlns="http://www.w3.org/2000/svg" width="67" height="68" viewBox="0 0 67 68" fill="none">
  <g clip-path="url(#clip0_731_930)">
    <path d="M20.9025 63.0923C23.1921 63.0923 25.0482 61.2308 25.0482 58.9346C25.0482 56.6383 23.1921 54.7769 20.9025 54.7769C18.6129 54.7769 16.7568 56.6383 16.7568 58.9346C16.7568 61.2308 18.6129 63.0923 20.9025 63.0923Z" fill="#464646"/>
    <path d="M49.9223 63.0923C52.2119 63.0923 54.068 61.2308 54.068 58.9346C54.068 56.6383 52.2119 54.7769 49.9223 54.7769C47.6327 54.7769 45.7766 56.6383 45.7766 58.9346C45.7766 61.2308 47.6327 63.0923 49.9223 63.0923Z" fill="#464646"/>
    <path d="M58.2138 15.2786H12.238L10.5383 6.54742C10.4414 6.07079 10.1809 5.64333 9.80215 5.33945C9.4234 5.03558 8.95039 4.87453 8.46546 4.88433H0.174072V9.04205H6.76572L14.684 48.9561C14.7809 49.4327 15.0414 49.8602 15.4201 50.1641C15.7989 50.468 16.2719 50.629 16.7568 50.6192H54.0681V46.4615H18.4566L16.7568 38.1461H54.0681C54.5472 38.1578 55.0156 38.0026 55.3936 37.707C55.7715 37.4114 56.0356 36.9935 56.1409 36.5245L60.2866 17.8148C60.3561 17.5064 60.3544 17.1861 60.2819 16.8784C60.2093 16.5706 60.0677 16.2836 59.8678 16.039C59.6679 15.7944 59.415 15.5988 59.1284 15.4671C58.8418 15.3353 58.529 15.2709 58.2138 15.2786ZM52.4098 33.9883H15.9692L13.0672 19.4363H55.6227L52.4098 33.9883Z" fill="#464646"/>
  </g>
  <defs>
    <clipPath id="clip0_731_930">
      <rect width="66.3311" height="66.5234" fill="white" transform="translate(0.174072 0.726562)"/>
    </clipPath>
  </defs>
</svg>
